<mxfile host="app.diagrams.net" modified="2023-04-03T17:57:14.996Z" agent="Mozilla/5.0 (Windows NT 10.0; Win64; x64) AppleWebKit/537.36 (KHTML, like Gecko) Chrome/111.0.0.0 Safari/537.36" etag="PTe3T1rtyw11Q7Ka0zdd" version="21.1.1" type="device">
  <diagram name="Page-1" id="MNI2yUAUOXnCwon0Vr7r">
    <mxGraphModel dx="1034" dy="507" grid="1" gridSize="10" guides="1" tooltips="1" connect="1" arrows="1" fold="1" page="1" pageScale="1" pageWidth="827" pageHeight="1169" math="0" shadow="0">
      <root>
        <mxCell id="0" />
        <mxCell id="1" parent="0" />
        <mxCell id="GVcD5Xy5OuQSxNuIszI--2" value="" style="rounded=0;whiteSpace=wrap;html=1;" vertex="1" parent="1">
          <mxGeometry x="10" y="10" width="810" height="410" as="geometry" />
        </mxCell>
        <mxCell id="GVcD5Xy5OuQSxNuIszI--3" value="Q1" style="text;html=1;strokeColor=none;fillColor=none;align=center;verticalAlign=middle;whiteSpace=wrap;rounded=0;" vertex="1" parent="1">
          <mxGeometry x="10" y="10" width="60" height="30" as="geometry" />
        </mxCell>
        <mxCell id="GVcD5Xy5OuQSxNuIszI--17" value="" style="rounded=0;whiteSpace=wrap;html=1;" vertex="1" parent="1">
          <mxGeometry x="190" y="40" width="110" height="110" as="geometry" />
        </mxCell>
        <mxCell id="GVcD5Xy5OuQSxNuIszI--14" value="q0" style="ellipse;whiteSpace=wrap;html=1;aspect=fixed;" vertex="1" parent="1">
          <mxGeometry x="220" y="80" width="40" height="40" as="geometry" />
        </mxCell>
        <mxCell id="GVcD5Xy5OuQSxNuIszI--15" value="(0 U 1)*" style="text;html=1;strokeColor=none;fillColor=none;align=center;verticalAlign=middle;whiteSpace=wrap;rounded=0;" vertex="1" parent="1">
          <mxGeometry x="190" y="40" width="60" height="30" as="geometry" />
        </mxCell>
        <mxCell id="GVcD5Xy5OuQSxNuIszI--18" value="q0" style="ellipse;whiteSpace=wrap;html=1;aspect=fixed;" vertex="1" parent="1">
          <mxGeometry x="225" y="85" width="30" height="30" as="geometry" />
        </mxCell>
        <mxCell id="GVcD5Xy5OuQSxNuIszI--19" value="0,1" style="edgeStyle=orthogonalEdgeStyle;rounded=0;orthogonalLoop=1;jettySize=auto;html=1;entryX=1;entryY=0.5;entryDx=0;entryDy=0;" edge="1" parent="1" source="GVcD5Xy5OuQSxNuIszI--14" target="GVcD5Xy5OuQSxNuIszI--14">
          <mxGeometry relative="1" as="geometry">
            <Array as="points">
              <mxPoint x="240" y="140" />
              <mxPoint x="280" y="140" />
              <mxPoint x="280" y="100" />
            </Array>
          </mxGeometry>
        </mxCell>
        <mxCell id="GVcD5Xy5OuQSxNuIszI--29" value="" style="rounded=0;whiteSpace=wrap;html=1;" vertex="1" parent="1">
          <mxGeometry x="310" y="40" width="210" height="110" as="geometry" />
        </mxCell>
        <mxCell id="GVcD5Xy5OuQSxNuIszI--30" value="000" style="text;html=1;strokeColor=none;fillColor=none;align=center;verticalAlign=middle;whiteSpace=wrap;rounded=0;" vertex="1" parent="1">
          <mxGeometry x="310" y="40" width="60" height="30" as="geometry" />
        </mxCell>
        <mxCell id="GVcD5Xy5OuQSxNuIszI--35" value="0" style="edgeStyle=orthogonalEdgeStyle;rounded=0;orthogonalLoop=1;jettySize=auto;html=1;entryX=0;entryY=0.5;entryDx=0;entryDy=0;" edge="1" parent="1" source="GVcD5Xy5OuQSxNuIszI--31" target="GVcD5Xy5OuQSxNuIszI--32">
          <mxGeometry relative="1" as="geometry">
            <Array as="points">
              <mxPoint x="335" y="65" />
              <mxPoint x="335" y="125" />
            </Array>
          </mxGeometry>
        </mxCell>
        <mxCell id="GVcD5Xy5OuQSxNuIszI--31" value="q0" style="ellipse;whiteSpace=wrap;html=1;aspect=fixed;" vertex="1" parent="1">
          <mxGeometry x="355" y="45" width="40" height="40" as="geometry" />
        </mxCell>
        <mxCell id="GVcD5Xy5OuQSxNuIszI--41" style="edgeStyle=orthogonalEdgeStyle;rounded=0;orthogonalLoop=1;jettySize=auto;html=1;entryX=0.5;entryY=1;entryDx=0;entryDy=0;" edge="1" parent="1" source="GVcD5Xy5OuQSxNuIszI--32" target="GVcD5Xy5OuQSxNuIszI--38">
          <mxGeometry relative="1" as="geometry" />
        </mxCell>
        <mxCell id="GVcD5Xy5OuQSxNuIszI--42" value="0" style="edgeLabel;html=1;align=center;verticalAlign=middle;resizable=0;points=[];" vertex="1" connectable="0" parent="GVcD5Xy5OuQSxNuIszI--41">
          <mxGeometry x="-0.0154" y="-4" relative="1" as="geometry">
            <mxPoint as="offset" />
          </mxGeometry>
        </mxCell>
        <mxCell id="GVcD5Xy5OuQSxNuIszI--32" value="q1" style="ellipse;whiteSpace=wrap;html=1;aspect=fixed;" vertex="1" parent="1">
          <mxGeometry x="355" y="105" width="40" height="40" as="geometry" />
        </mxCell>
        <mxCell id="GVcD5Xy5OuQSxNuIszI--33" value="q0" style="ellipse;whiteSpace=wrap;html=1;aspect=fixed;" vertex="1" parent="1">
          <mxGeometry x="470" y="85" width="40" height="40" as="geometry" />
        </mxCell>
        <mxCell id="GVcD5Xy5OuQSxNuIszI--34" value="q3" style="ellipse;whiteSpace=wrap;html=1;aspect=fixed;" vertex="1" parent="1">
          <mxGeometry x="475" y="90" width="30" height="30" as="geometry" />
        </mxCell>
        <mxCell id="GVcD5Xy5OuQSxNuIszI--40" value="0" style="edgeStyle=orthogonalEdgeStyle;rounded=0;orthogonalLoop=1;jettySize=auto;html=1;entryX=0;entryY=0.5;entryDx=0;entryDy=0;" edge="1" parent="1" source="GVcD5Xy5OuQSxNuIszI--38" target="GVcD5Xy5OuQSxNuIszI--33">
          <mxGeometry relative="1" as="geometry" />
        </mxCell>
        <mxCell id="GVcD5Xy5OuQSxNuIszI--38" value="q2" style="ellipse;whiteSpace=wrap;html=1;aspect=fixed;" vertex="1" parent="1">
          <mxGeometry x="400" y="45" width="40" height="40" as="geometry" />
        </mxCell>
        <mxCell id="GVcD5Xy5OuQSxNuIszI--44" value="" style="rounded=0;whiteSpace=wrap;html=1;" vertex="1" parent="1">
          <mxGeometry x="15" y="160" width="505" height="120" as="geometry" />
        </mxCell>
        <mxCell id="GVcD5Xy5OuQSxNuIszI--45" value="000(00 U 11)" style="text;html=1;strokeColor=none;fillColor=none;align=center;verticalAlign=middle;whiteSpace=wrap;rounded=0;" vertex="1" parent="1">
          <mxGeometry x="15" y="160" width="85" height="30" as="geometry" />
        </mxCell>
        <mxCell id="GVcD5Xy5OuQSxNuIszI--47" value="" style="rounded=0;whiteSpace=wrap;html=1;" vertex="1" parent="1">
          <mxGeometry x="530" y="20" width="210" height="130" as="geometry" />
        </mxCell>
        <mxCell id="GVcD5Xy5OuQSxNuIszI--48" value="(00 U 11)" style="text;html=1;strokeColor=none;fillColor=none;align=center;verticalAlign=middle;whiteSpace=wrap;rounded=0;" vertex="1" parent="1">
          <mxGeometry x="530" y="20" width="60" height="30" as="geometry" />
        </mxCell>
        <mxCell id="GVcD5Xy5OuQSxNuIszI--67" value="1" style="edgeStyle=orthogonalEdgeStyle;rounded=0;orthogonalLoop=1;jettySize=auto;html=1;entryX=0;entryY=0.5;entryDx=0;entryDy=0;" edge="1" parent="1" source="GVcD5Xy5OuQSxNuIszI--50" target="GVcD5Xy5OuQSxNuIszI--59">
          <mxGeometry relative="1" as="geometry">
            <Array as="points">
              <mxPoint x="560" y="125" />
            </Array>
          </mxGeometry>
        </mxCell>
        <mxCell id="GVcD5Xy5OuQSxNuIszI--69" value="0" style="edgeStyle=orthogonalEdgeStyle;rounded=0;orthogonalLoop=1;jettySize=auto;html=1;entryX=0;entryY=0.5;entryDx=0;entryDy=0;" edge="1" parent="1" source="GVcD5Xy5OuQSxNuIszI--50" target="GVcD5Xy5OuQSxNuIszI--60">
          <mxGeometry relative="1" as="geometry">
            <Array as="points">
              <mxPoint x="560" y="65" />
            </Array>
          </mxGeometry>
        </mxCell>
        <mxCell id="GVcD5Xy5OuQSxNuIszI--50" value="q0" style="ellipse;whiteSpace=wrap;html=1;aspect=fixed;" vertex="1" parent="1">
          <mxGeometry x="540" y="75" width="40" height="40" as="geometry" />
        </mxCell>
        <mxCell id="GVcD5Xy5OuQSxNuIszI--66" value="1" style="edgeStyle=orthogonalEdgeStyle;rounded=0;orthogonalLoop=1;jettySize=auto;html=1;entryX=0;entryY=0.5;entryDx=0;entryDy=0;" edge="1" parent="1" source="GVcD5Xy5OuQSxNuIszI--59" target="GVcD5Xy5OuQSxNuIszI--61">
          <mxGeometry relative="1" as="geometry" />
        </mxCell>
        <mxCell id="GVcD5Xy5OuQSxNuIszI--59" value="q3" style="ellipse;whiteSpace=wrap;html=1;aspect=fixed;" vertex="1" parent="1">
          <mxGeometry x="600" y="105" width="40" height="40" as="geometry" />
        </mxCell>
        <mxCell id="GVcD5Xy5OuQSxNuIszI--65" value="0" style="edgeStyle=orthogonalEdgeStyle;rounded=0;orthogonalLoop=1;jettySize=auto;html=1;entryX=0;entryY=0.5;entryDx=0;entryDy=0;" edge="1" parent="1" source="GVcD5Xy5OuQSxNuIszI--60" target="GVcD5Xy5OuQSxNuIszI--62">
          <mxGeometry relative="1" as="geometry" />
        </mxCell>
        <mxCell id="GVcD5Xy5OuQSxNuIszI--60" value="q1" style="ellipse;whiteSpace=wrap;html=1;aspect=fixed;" vertex="1" parent="1">
          <mxGeometry x="600" y="45" width="40" height="40" as="geometry" />
        </mxCell>
        <mxCell id="GVcD5Xy5OuQSxNuIszI--61" value="q0" style="ellipse;whiteSpace=wrap;html=1;aspect=fixed;" vertex="1" parent="1">
          <mxGeometry x="690" y="105" width="40" height="40" as="geometry" />
        </mxCell>
        <mxCell id="GVcD5Xy5OuQSxNuIszI--62" value="q0" style="ellipse;whiteSpace=wrap;html=1;aspect=fixed;" vertex="1" parent="1">
          <mxGeometry x="690" y="45" width="40" height="40" as="geometry" />
        </mxCell>
        <mxCell id="GVcD5Xy5OuQSxNuIszI--63" value="q2" style="ellipse;whiteSpace=wrap;html=1;aspect=fixed;" vertex="1" parent="1">
          <mxGeometry x="695" y="50" width="30" height="30" as="geometry" />
        </mxCell>
        <mxCell id="GVcD5Xy5OuQSxNuIszI--64" value="q4" style="ellipse;whiteSpace=wrap;html=1;aspect=fixed;" vertex="1" parent="1">
          <mxGeometry x="695" y="110" width="30" height="30" as="geometry" />
        </mxCell>
        <mxCell id="GVcD5Xy5OuQSxNuIszI--82" value="0" style="edgeStyle=orthogonalEdgeStyle;rounded=0;orthogonalLoop=1;jettySize=auto;html=1;entryX=0;entryY=0.5;entryDx=0;entryDy=0;" edge="1" parent="1" source="GVcD5Xy5OuQSxNuIszI--70" target="GVcD5Xy5OuQSxNuIszI--71">
          <mxGeometry relative="1" as="geometry" />
        </mxCell>
        <mxCell id="GVcD5Xy5OuQSxNuIszI--70" value="q0" style="ellipse;whiteSpace=wrap;html=1;aspect=fixed;" vertex="1" parent="1">
          <mxGeometry x="20" y="195" width="40" height="40" as="geometry" />
        </mxCell>
        <mxCell id="GVcD5Xy5OuQSxNuIszI--83" value="0" style="edgeStyle=orthogonalEdgeStyle;rounded=0;orthogonalLoop=1;jettySize=auto;html=1;entryX=0;entryY=0.5;entryDx=0;entryDy=0;" edge="1" parent="1" source="GVcD5Xy5OuQSxNuIszI--71" target="GVcD5Xy5OuQSxNuIszI--74">
          <mxGeometry relative="1" as="geometry" />
        </mxCell>
        <mxCell id="GVcD5Xy5OuQSxNuIszI--71" value="q1" style="ellipse;whiteSpace=wrap;html=1;aspect=fixed;" vertex="1" parent="1">
          <mxGeometry x="90" y="195" width="40" height="40" as="geometry" />
        </mxCell>
        <mxCell id="GVcD5Xy5OuQSxNuIszI--87" value="0" style="edgeStyle=orthogonalEdgeStyle;rounded=0;orthogonalLoop=1;jettySize=auto;html=1;entryX=0;entryY=0.5;entryDx=0;entryDy=0;" edge="1" parent="1" source="GVcD5Xy5OuQSxNuIszI--72" target="GVcD5Xy5OuQSxNuIszI--77">
          <mxGeometry relative="1" as="geometry">
            <Array as="points">
              <mxPoint x="250" y="185" />
            </Array>
          </mxGeometry>
        </mxCell>
        <mxCell id="GVcD5Xy5OuQSxNuIszI--88" value="1" style="edgeStyle=orthogonalEdgeStyle;rounded=0;orthogonalLoop=1;jettySize=auto;html=1;entryX=0;entryY=0.5;entryDx=0;entryDy=0;" edge="1" parent="1" source="GVcD5Xy5OuQSxNuIszI--72" target="GVcD5Xy5OuQSxNuIszI--76">
          <mxGeometry relative="1" as="geometry">
            <Array as="points">
              <mxPoint x="250" y="245" />
            </Array>
          </mxGeometry>
        </mxCell>
        <mxCell id="GVcD5Xy5OuQSxNuIszI--72" value="q3" style="ellipse;whiteSpace=wrap;html=1;aspect=fixed;" vertex="1" parent="1">
          <mxGeometry x="230" y="195" width="40" height="40" as="geometry" />
        </mxCell>
        <mxCell id="GVcD5Xy5OuQSxNuIszI--84" value="0" style="edgeStyle=orthogonalEdgeStyle;rounded=0;orthogonalLoop=1;jettySize=auto;html=1;entryX=0;entryY=0.5;entryDx=0;entryDy=0;" edge="1" parent="1" source="GVcD5Xy5OuQSxNuIszI--74" target="GVcD5Xy5OuQSxNuIszI--72">
          <mxGeometry relative="1" as="geometry" />
        </mxCell>
        <mxCell id="GVcD5Xy5OuQSxNuIszI--74" value="q2" style="ellipse;whiteSpace=wrap;html=1;aspect=fixed;" vertex="1" parent="1">
          <mxGeometry x="160" y="195" width="40" height="40" as="geometry" />
        </mxCell>
        <mxCell id="GVcD5Xy5OuQSxNuIszI--86" value="1" style="edgeStyle=orthogonalEdgeStyle;rounded=0;orthogonalLoop=1;jettySize=auto;html=1;entryX=0;entryY=0.5;entryDx=0;entryDy=0;" edge="1" parent="1" source="GVcD5Xy5OuQSxNuIszI--76" target="GVcD5Xy5OuQSxNuIszI--78">
          <mxGeometry relative="1" as="geometry" />
        </mxCell>
        <mxCell id="GVcD5Xy5OuQSxNuIszI--76" value="q6" style="ellipse;whiteSpace=wrap;html=1;aspect=fixed;" vertex="1" parent="1">
          <mxGeometry x="310" y="225" width="40" height="40" as="geometry" />
        </mxCell>
        <mxCell id="GVcD5Xy5OuQSxNuIszI--85" value="0" style="edgeStyle=orthogonalEdgeStyle;rounded=0;orthogonalLoop=1;jettySize=auto;html=1;entryX=0;entryY=0.5;entryDx=0;entryDy=0;" edge="1" parent="1" source="GVcD5Xy5OuQSxNuIszI--77" target="GVcD5Xy5OuQSxNuIszI--79">
          <mxGeometry relative="1" as="geometry" />
        </mxCell>
        <mxCell id="GVcD5Xy5OuQSxNuIszI--77" value="q4" style="ellipse;whiteSpace=wrap;html=1;aspect=fixed;" vertex="1" parent="1">
          <mxGeometry x="310" y="165" width="40" height="40" as="geometry" />
        </mxCell>
        <mxCell id="GVcD5Xy5OuQSxNuIszI--78" value="q0" style="ellipse;whiteSpace=wrap;html=1;aspect=fixed;" vertex="1" parent="1">
          <mxGeometry x="400" y="225" width="40" height="40" as="geometry" />
        </mxCell>
        <mxCell id="GVcD5Xy5OuQSxNuIszI--79" value="q0" style="ellipse;whiteSpace=wrap;html=1;aspect=fixed;" vertex="1" parent="1">
          <mxGeometry x="400" y="165" width="40" height="40" as="geometry" />
        </mxCell>
        <mxCell id="GVcD5Xy5OuQSxNuIszI--80" value="q5" style="ellipse;whiteSpace=wrap;html=1;aspect=fixed;" vertex="1" parent="1">
          <mxGeometry x="405" y="170" width="30" height="30" as="geometry" />
        </mxCell>
        <mxCell id="GVcD5Xy5OuQSxNuIszI--81" value="q7" style="ellipse;whiteSpace=wrap;html=1;aspect=fixed;" vertex="1" parent="1">
          <mxGeometry x="405" y="230" width="30" height="30" as="geometry" />
        </mxCell>
        <mxCell id="GVcD5Xy5OuQSxNuIszI--89" value="" style="rounded=0;whiteSpace=wrap;html=1;" vertex="1" parent="1">
          <mxGeometry x="15" y="290" width="795" height="120" as="geometry" />
        </mxCell>
        <mxCell id="GVcD5Xy5OuQSxNuIszI--107" value="0" style="edgeStyle=orthogonalEdgeStyle;rounded=0;orthogonalLoop=1;jettySize=auto;html=1;entryX=0;entryY=0.5;entryDx=0;entryDy=0;" edge="1" parent="1" source="GVcD5Xy5OuQSxNuIszI--108" target="GVcD5Xy5OuQSxNuIszI--110">
          <mxGeometry relative="1" as="geometry" />
        </mxCell>
        <mxCell id="GVcD5Xy5OuQSxNuIszI--108" value="q1" style="ellipse;whiteSpace=wrap;html=1;aspect=fixed;" vertex="1" parent="1">
          <mxGeometry x="165" y="330" width="40" height="40" as="geometry" />
        </mxCell>
        <mxCell id="GVcD5Xy5OuQSxNuIszI--109" value="0" style="edgeStyle=orthogonalEdgeStyle;rounded=0;orthogonalLoop=1;jettySize=auto;html=1;entryX=0;entryY=0.5;entryDx=0;entryDy=0;" edge="1" parent="1" source="GVcD5Xy5OuQSxNuIszI--110" target="GVcD5Xy5OuQSxNuIszI--115">
          <mxGeometry relative="1" as="geometry" />
        </mxCell>
        <mxCell id="GVcD5Xy5OuQSxNuIszI--110" value="q2" style="ellipse;whiteSpace=wrap;html=1;aspect=fixed;" vertex="1" parent="1">
          <mxGeometry x="235" y="330" width="40" height="40" as="geometry" />
        </mxCell>
        <mxCell id="GVcD5Xy5OuQSxNuIszI--111" value="0" style="edgeStyle=orthogonalEdgeStyle;rounded=0;orthogonalLoop=1;jettySize=auto;html=1;entryX=0;entryY=0.5;entryDx=0;entryDy=0;" edge="1" parent="1" source="GVcD5Xy5OuQSxNuIszI--113" target="GVcD5Xy5OuQSxNuIszI--119">
          <mxGeometry relative="1" as="geometry">
            <Array as="points">
              <mxPoint x="395" y="320" />
            </Array>
          </mxGeometry>
        </mxCell>
        <mxCell id="GVcD5Xy5OuQSxNuIszI--112" value="1" style="edgeStyle=orthogonalEdgeStyle;rounded=0;orthogonalLoop=1;jettySize=auto;html=1;entryX=0;entryY=0.5;entryDx=0;entryDy=0;" edge="1" parent="1" source="GVcD5Xy5OuQSxNuIszI--113" target="GVcD5Xy5OuQSxNuIszI--117">
          <mxGeometry relative="1" as="geometry">
            <Array as="points">
              <mxPoint x="395" y="380" />
            </Array>
          </mxGeometry>
        </mxCell>
        <mxCell id="GVcD5Xy5OuQSxNuIszI--113" value="q4" style="ellipse;whiteSpace=wrap;html=1;aspect=fixed;" vertex="1" parent="1">
          <mxGeometry x="375" y="330" width="40" height="40" as="geometry" />
        </mxCell>
        <mxCell id="GVcD5Xy5OuQSxNuIszI--114" value="0" style="edgeStyle=orthogonalEdgeStyle;rounded=0;orthogonalLoop=1;jettySize=auto;html=1;entryX=0;entryY=0.5;entryDx=0;entryDy=0;" edge="1" parent="1" source="GVcD5Xy5OuQSxNuIszI--115" target="GVcD5Xy5OuQSxNuIszI--113">
          <mxGeometry relative="1" as="geometry" />
        </mxCell>
        <mxCell id="GVcD5Xy5OuQSxNuIszI--115" value="q3" style="ellipse;whiteSpace=wrap;html=1;aspect=fixed;" vertex="1" parent="1">
          <mxGeometry x="305" y="330" width="40" height="40" as="geometry" />
        </mxCell>
        <mxCell id="GVcD5Xy5OuQSxNuIszI--116" value="1" style="edgeStyle=orthogonalEdgeStyle;rounded=0;orthogonalLoop=1;jettySize=auto;html=1;entryX=0;entryY=0.5;entryDx=0;entryDy=0;" edge="1" parent="1" source="GVcD5Xy5OuQSxNuIszI--117" target="GVcD5Xy5OuQSxNuIszI--120">
          <mxGeometry relative="1" as="geometry" />
        </mxCell>
        <mxCell id="GVcD5Xy5OuQSxNuIszI--117" value="q7" style="ellipse;whiteSpace=wrap;html=1;aspect=fixed;" vertex="1" parent="1">
          <mxGeometry x="455" y="360" width="40" height="40" as="geometry" />
        </mxCell>
        <mxCell id="GVcD5Xy5OuQSxNuIszI--118" value="0" style="edgeStyle=orthogonalEdgeStyle;rounded=0;orthogonalLoop=1;jettySize=auto;html=1;entryX=0;entryY=0.5;entryDx=0;entryDy=0;" edge="1" parent="1" source="GVcD5Xy5OuQSxNuIszI--119" target="GVcD5Xy5OuQSxNuIszI--121">
          <mxGeometry relative="1" as="geometry" />
        </mxCell>
        <mxCell id="GVcD5Xy5OuQSxNuIszI--119" value="q5" style="ellipse;whiteSpace=wrap;html=1;aspect=fixed;" vertex="1" parent="1">
          <mxGeometry x="455" y="300" width="40" height="40" as="geometry" />
        </mxCell>
        <mxCell id="GVcD5Xy5OuQSxNuIszI--120" value="q0" style="ellipse;whiteSpace=wrap;html=1;aspect=fixed;" vertex="1" parent="1">
          <mxGeometry x="545" y="360" width="40" height="40" as="geometry" />
        </mxCell>
        <mxCell id="GVcD5Xy5OuQSxNuIszI--121" value="q0" style="ellipse;whiteSpace=wrap;html=1;aspect=fixed;" vertex="1" parent="1">
          <mxGeometry x="545" y="300" width="40" height="40" as="geometry" />
        </mxCell>
        <mxCell id="GVcD5Xy5OuQSxNuIszI--122" value="q6" style="ellipse;whiteSpace=wrap;html=1;aspect=fixed;" vertex="1" parent="1">
          <mxGeometry x="550" y="305" width="30" height="30" as="geometry" />
        </mxCell>
        <mxCell id="GVcD5Xy5OuQSxNuIszI--123" value="q8" style="ellipse;whiteSpace=wrap;html=1;aspect=fixed;" vertex="1" parent="1">
          <mxGeometry x="550" y="365" width="30" height="30" as="geometry" />
        </mxCell>
        <mxCell id="GVcD5Xy5OuQSxNuIszI--127" value="E,0,1" style="edgeStyle=orthogonalEdgeStyle;rounded=0;orthogonalLoop=1;jettySize=auto;html=1;entryX=0;entryY=0.5;entryDx=0;entryDy=0;" edge="1" parent="1" source="GVcD5Xy5OuQSxNuIszI--124" target="GVcD5Xy5OuQSxNuIszI--108">
          <mxGeometry relative="1" as="geometry" />
        </mxCell>
        <mxCell id="GVcD5Xy5OuQSxNuIszI--124" value="q0" style="ellipse;whiteSpace=wrap;html=1;aspect=fixed;" vertex="1" parent="1">
          <mxGeometry x="60" y="330" width="40" height="40" as="geometry" />
        </mxCell>
        <mxCell id="GVcD5Xy5OuQSxNuIszI--126" value="0,1" style="edgeStyle=orthogonalEdgeStyle;rounded=0;orthogonalLoop=1;jettySize=auto;html=1;" edge="1" parent="1" source="GVcD5Xy5OuQSxNuIszI--124">
          <mxGeometry relative="1" as="geometry">
            <Array as="points">
              <mxPoint x="80" y="390" />
              <mxPoint x="40" y="390" />
              <mxPoint x="40" y="350" />
            </Array>
            <mxPoint x="60" y="350" as="targetPoint" />
          </mxGeometry>
        </mxCell>
        <mxCell id="GVcD5Xy5OuQSxNuIszI--129" value="" style="rounded=0;whiteSpace=wrap;html=1;" vertex="1" parent="1">
          <mxGeometry x="15" y="40" width="165" height="110" as="geometry" />
        </mxCell>
        <mxCell id="GVcD5Xy5OuQSxNuIszI--131" value="q1" style="ellipse;whiteSpace=wrap;html=1;aspect=fixed;" vertex="1" parent="1">
          <mxGeometry x="100" y="50" width="45" height="45" as="geometry" />
        </mxCell>
        <mxCell id="GVcD5Xy5OuQSxNuIszI--133" value="0 u 1" style="text;html=1;strokeColor=none;fillColor=none;align=center;verticalAlign=middle;whiteSpace=wrap;rounded=0;" vertex="1" parent="1">
          <mxGeometry x="15" y="40" width="60" height="30" as="geometry" />
        </mxCell>
        <mxCell id="GVcD5Xy5OuQSxNuIszI--134" value="0" style="endArrow=classic;html=1;rounded=0;exitX=1;exitY=0;exitDx=0;exitDy=0;entryX=0;entryY=0.5;entryDx=0;entryDy=0;" edge="1" parent="1" target="GVcD5Xy5OuQSxNuIszI--131">
          <mxGeometry width="50" height="50" relative="1" as="geometry">
            <mxPoint x="59" y="86" as="sourcePoint" />
            <mxPoint x="95" y="70" as="targetPoint" />
          </mxGeometry>
        </mxCell>
        <mxCell id="GVcD5Xy5OuQSxNuIszI--135" value="1" style="endArrow=classic;html=1;rounded=0;exitX=1;exitY=1;exitDx=0;exitDy=0;entryX=0;entryY=0.5;entryDx=0;entryDy=0;" edge="1" parent="1" target="GVcD5Xy5OuQSxNuIszI--139">
          <mxGeometry width="50" height="50" relative="1" as="geometry">
            <mxPoint x="59" y="114" as="sourcePoint" />
            <mxPoint x="95" y="130" as="targetPoint" />
          </mxGeometry>
        </mxCell>
        <mxCell id="GVcD5Xy5OuQSxNuIszI--136" value="q0" style="ellipse;whiteSpace=wrap;html=1;aspect=fixed;" vertex="1" parent="1">
          <mxGeometry x="25" y="80" width="40" height="40" as="geometry" />
        </mxCell>
        <mxCell id="GVcD5Xy5OuQSxNuIszI--139" value="q1" style="ellipse;whiteSpace=wrap;html=1;aspect=fixed;" vertex="1" parent="1">
          <mxGeometry x="100" y="100" width="45" height="45" as="geometry" />
        </mxCell>
        <mxCell id="GVcD5Xy5OuQSxNuIszI--140" value="q1" style="ellipse;whiteSpace=wrap;html=1;aspect=fixed;" vertex="1" parent="1">
          <mxGeometry x="106.25" y="56.25" width="32.5" height="32.5" as="geometry" />
        </mxCell>
        <mxCell id="GVcD5Xy5OuQSxNuIszI--142" value="q2" style="ellipse;whiteSpace=wrap;html=1;aspect=fixed;" vertex="1" parent="1">
          <mxGeometry x="105" y="105" width="35" height="35" as="geometry" />
        </mxCell>
      </root>
    </mxGraphModel>
  </diagram>
</mxfile>
